<svg id="Capa_1" enable-background="new 0 0 512 512" height="512" viewBox="0 0 512 512" width="512" xmlns="http://www.w3.org/2000/svg"><g><path fill="white" d="m91 271h30v30h-30z"/><path fill="white" d="m391 271h30v30h-30z"/><path fill="white" d="m406 181c-27.524 0-53.936 10.854-73.491 30h-61.509v-45c0-24.814-20.186-45-45-45h-30c-8.276 0-15-6.724-15-15s6.724-15 15-15h90c24.814 0 45-20.186 45-45v-46h-30v46c0 8.276-6.724 15-15 15h-90c-24.814 0-45 20.186-45 45s20.186 45 45 45h30c8.276 0 15 6.724 15 15v45h-61.509c-19.556-19.146-45.967-30-73.491-30-57.891 0-106 47.109-106 105 0 7.061.718 14.15 2.124 21.108l30.399 143.965c7.076 34.717 37.984 60.927 73.477 60.927 39.192 0 71.094-31.33 74.361-69.69-17.503-10.492-29.361-29.456-29.361-51.31 0-33.091 26.909-60 60-60 18.007 0 33.995 8.134 45 20.729 11.005-12.595 26.993-20.729 45-20.729 33.091 0 60 26.909 60 60 0 21.854-11.858 40.818-29.361 51.31 3.267 38.36 35.169 69.69 74.361 69.69 35.493 0 66.401-26.21 73.477-60.927l30.414-143.994c1.391-6.929 2.109-14.018 2.109-21.079 0-57.891-48.109-105-106-105zm-255 120h-30v30h-30v-30h-30v-30h30v-30h30v30h30zm90 0h-30v-30h30zm60 0h-30v-30h30zm150 0h-30v30h-30v-30h-30v-30h30v-30h30v30h30z"/><circle fill="white" cx="211" cy="391" r="30"/><circle fill="white" cx="301" cy="391" r="30"/></g></svg>