<svg height="512" viewBox="0 0 64 64" width="512" xmlns="http://www.w3.org/2000/svg"><g id="Light_Bulb" data-name="Light Bulb"><path fill="white" d="m38.029 46a4.876 4.876 0 0 1 2.358-3.812 17.564 17.564 0 0 0 8.613-15.188 17 17 0 0 0 -34 0 17.564 17.564 0 0 0 8.613 15.188 4.876 4.876 0 0 1 2.358 3.812h7.029v2h-7v1.98h7v2h-7v2.02h12v-2h-3v-2h3v-2h-3v-2zm2.6-31.271a15.027 15.027 0 0 1 6.371 12.271h-2a13.029 13.029 0 0 0 -5.523-10.637zm-4.341-2.107a14.838 14.838 0 0 1 2.164.833l-.862 1.8a12.966 12.966 0 0 0 -1.873-.72z"/><path fill="white" d="m26.1 56a5.009 5.009 0 0 0 4.9 4h2a5.009 5.009 0 0 0 4.9-4z"/><path fill="white" d="m31 2h2v4h-2z"/><path fill="white" d="m14.737 8.736h2v4h-2z" transform="matrix(.707 -.707 .707 .707 -2.983 14.272)"/><path fill="white" d="m7 26h4v2h-4z"/><path fill="white" d="m13.736 42.264h4v2h-4z" transform="matrix(.707 -.707 .707 .707 -25.983 23.799)"/><path fill="white" d="m47.264 41.263h2v4h-2z" transform="matrix(.707 -.707 .707 .707 -16.456 46.799)"/><path fill="white" d="m53 26h4v2h-4z"/><path fill="white" d="m46.263 9.737h4v2h-4z" transform="matrix(.707 -.707 .707 .707 6.544 37.272)"/></g></svg>